<svg width="97" height="24" viewBox="0 0 97 24" fill="none" xmlns="http://www.w3.org/2000/svg">
<path opacity="0.6" d="M34.038 16.192C33.542 16.192 33.1 16.124 32.712 15.988C32.324 15.848 31.99 15.678 31.71 15.478C31.43 15.278 31.2 15.082 31.02 14.89C30.84 14.694 30.708 14.54 30.624 14.428L31.29 13.48C31.382 13.592 31.506 13.736 31.662 13.912C31.818 14.088 32.01 14.264 32.238 14.44C32.466 14.616 32.732 14.764 33.036 14.884C33.34 15.004 33.684 15.064 34.068 15.064C34.432 15.064 34.762 15 35.058 14.872C35.354 14.744 35.59 14.554 35.766 14.302C35.946 14.05 36.036 13.738 36.036 13.366C36.036 13.05 35.972 12.782 35.844 12.562C35.716 12.338 35.538 12.146 35.31 11.986C35.082 11.826 34.816 11.68 34.512 11.548C34.208 11.412 33.88 11.276 33.528 11.14C33.28 11.04 33.028 10.924 32.772 10.792C32.516 10.656 32.28 10.492 32.064 10.3C31.848 10.104 31.674 9.872 31.542 9.604C31.41 9.336 31.344 9.02 31.344 8.656C31.344 8.288 31.414 7.94 31.554 7.612C31.694 7.284 31.892 6.994 32.148 6.742C32.404 6.486 32.708 6.286 33.06 6.142C33.416 5.994 33.81 5.92 34.242 5.92C34.626 5.92 34.988 5.98 35.328 6.1C35.672 6.22 35.978 6.374 36.246 6.562C36.514 6.746 36.728 6.94 36.888 7.144L36.318 8.038C36.186 7.866 36.018 7.704 35.814 7.552C35.61 7.396 35.376 7.27 35.112 7.174C34.848 7.078 34.564 7.03 34.26 7.03C33.888 7.03 33.572 7.108 33.312 7.264C33.056 7.416 32.86 7.614 32.724 7.858C32.588 8.102 32.52 8.362 32.52 8.638C32.52 8.886 32.57 9.096 32.67 9.268C32.774 9.44 32.912 9.586 33.084 9.706C33.256 9.826 33.45 9.932 33.666 10.024C33.882 10.116 34.104 10.204 34.332 10.288C34.74 10.448 35.126 10.614 35.49 10.786C35.854 10.954 36.174 11.152 36.45 11.38C36.726 11.604 36.942 11.874 37.098 12.19C37.258 12.506 37.338 12.888 37.338 13.336C37.338 13.94 37.194 14.456 36.906 14.884C36.622 15.308 36.232 15.632 35.736 15.856C35.24 16.08 34.674 16.192 34.038 16.192ZM39.4154 16V9.856H40.5794V16H39.4154ZM39.9974 8.614C39.8654 8.614 39.7434 8.582 39.6314 8.518C39.5234 8.45 39.4354 8.36 39.3674 8.248C39.3034 8.136 39.2714 8.014 39.2714 7.882C39.2714 7.746 39.3034 7.624 39.3674 7.516C39.4354 7.408 39.5234 7.322 39.6314 7.258C39.7434 7.19 39.8654 7.156 39.9974 7.156C40.1334 7.156 40.2554 7.19 40.3634 7.258C40.4714 7.322 40.5574 7.408 40.6214 7.516C40.6894 7.624 40.7234 7.744 40.7234 7.876C40.7234 8.012 40.6894 8.136 40.6214 8.248C40.5574 8.36 40.4714 8.45 40.3634 8.518C40.2554 8.582 40.1334 8.614 39.9974 8.614ZM42.2265 16L46.4265 10.78H42.7005V9.856H48.4725L44.2665 15.076H48.3165V16H42.2265ZM53.1124 16.192C52.4684 16.192 51.8904 16.05 51.3784 15.766C50.8664 15.482 50.4624 15.096 50.1664 14.608C49.8704 14.116 49.7224 13.562 49.7224 12.946C49.7224 12.49 49.8064 12.064 49.9744 11.668C50.1424 11.272 50.3764 10.924 50.6764 10.624C50.9764 10.32 51.3244 10.084 51.7204 9.916C52.1164 9.748 52.5404 9.664 52.9924 9.664C53.6324 9.664 54.1924 9.796 54.6724 10.06C55.1564 10.324 55.5324 10.692 55.8004 11.164C56.0724 11.636 56.2084 12.184 56.2084 12.808C56.2084 12.86 56.2064 12.902 56.2024 12.934C56.1984 12.966 56.1904 13.008 56.1784 13.06H50.8984C50.8984 13.488 50.9944 13.866 51.1864 14.194C51.3824 14.522 51.6504 14.78 51.9904 14.968C52.3344 15.152 52.7284 15.244 53.1724 15.244C53.5924 15.244 53.9684 15.158 54.3004 14.986C54.6324 14.814 54.9204 14.558 55.1644 14.218L56.0164 14.662C55.7244 15.146 55.3224 15.522 54.8104 15.79C54.3024 16.058 53.7364 16.192 53.1124 16.192ZM50.9584 12.202H55.0384C54.9824 11.886 54.8584 11.61 54.6664 11.374C54.4784 11.134 54.2404 10.948 53.9524 10.816C53.6684 10.68 53.3544 10.612 53.0104 10.612C52.6504 10.612 52.3244 10.678 52.0324 10.81C51.7444 10.938 51.5064 11.122 51.3184 11.362C51.1344 11.598 51.0144 11.878 50.9584 12.202ZM64.0609 19.3C63.2689 19.3 62.6009 19.148 62.0569 18.844C61.5129 18.54 61.1109 18.096 60.8509 17.512L61.8169 17.056C62.0009 17.436 62.2949 17.738 62.6989 17.962C63.1029 18.19 63.5569 18.304 64.0609 18.304C64.4929 18.304 64.8769 18.218 65.2129 18.046C65.5529 17.874 65.8189 17.628 66.0109 17.308C66.2069 16.988 66.3049 16.606 66.3049 16.162V14.848C66.0449 15.268 65.7029 15.598 65.2789 15.838C64.8549 16.074 64.3869 16.192 63.8749 16.192C63.3069 16.192 62.7929 16.052 62.3329 15.772C61.8729 15.492 61.5069 15.106 61.2349 14.614C60.9629 14.122 60.8269 13.56 60.8269 12.928C60.8269 12.3 60.9609 11.742 61.2289 11.254C61.4969 10.762 61.8609 10.374 62.3209 10.09C62.7849 9.806 63.3109 9.664 63.8989 9.664C64.4109 9.664 64.8789 9.78 65.3029 10.012C65.7269 10.244 66.0609 10.566 66.3049 10.978V9.856H67.4689V16.168C67.4689 16.824 67.3349 17.386 67.0669 17.854C66.8029 18.322 66.4169 18.68 65.9089 18.928C65.4009 19.176 64.7849 19.3 64.0609 19.3ZM64.1869 15.19C64.6069 15.19 64.9789 15.094 65.3029 14.902C65.6309 14.706 65.8869 14.438 66.0709 14.098C66.2549 13.758 66.3469 13.37 66.3469 12.934C66.3469 12.494 66.2529 12.104 66.0649 11.764C65.8809 11.42 65.6269 11.152 65.3029 10.96C64.9789 10.764 64.6089 10.666 64.1929 10.666C63.7769 10.666 63.4069 10.764 63.0829 10.96C62.7589 11.152 62.5029 11.42 62.3149 11.764C62.1309 12.104 62.0389 12.494 62.0389 12.934C62.0389 13.37 62.1309 13.758 62.3149 14.098C62.4989 14.438 62.7529 14.706 63.0769 14.902C63.4009 15.094 63.7709 15.19 64.1869 15.19ZM72.5653 16.192C71.5773 16.192 70.8693 15.98 70.4413 15.556C70.0133 15.128 69.7993 14.418 69.7993 13.426V9.856H70.9633V13.186C70.9633 13.922 71.0853 14.446 71.3293 14.758C71.5733 15.07 71.9853 15.226 72.5653 15.226C73.1493 15.226 73.5633 15.07 73.8073 14.758C74.0513 14.446 74.1733 13.922 74.1733 13.186V9.856H75.3373V13.426C75.3373 14.418 75.1233 15.128 74.6953 15.556C74.2673 15.98 73.5573 16.192 72.5653 16.192ZM77.6654 16V9.856H78.8294V16H77.6654ZM78.2474 8.614C78.1154 8.614 77.9934 8.582 77.8814 8.518C77.7734 8.45 77.6854 8.36 77.6174 8.248C77.5534 8.136 77.5214 8.014 77.5214 7.882C77.5214 7.746 77.5534 7.624 77.6174 7.516C77.6854 7.408 77.7734 7.322 77.8814 7.258C77.9934 7.19 78.1154 7.156 78.2474 7.156C78.3834 7.156 78.5054 7.19 78.6134 7.258C78.7214 7.322 78.8074 7.408 78.8714 7.516C78.9394 7.624 78.9734 7.744 78.9734 7.876C78.9734 8.012 78.9394 8.136 78.8714 8.248C78.8074 8.36 78.7214 8.45 78.6134 8.518C78.5054 8.582 78.3834 8.614 78.2474 8.614ZM83.8905 16.192C83.3225 16.192 82.8065 16.052 82.3425 15.772C81.8825 15.492 81.5165 15.106 81.2445 14.614C80.9765 14.122 80.8425 13.56 80.8425 12.928C80.8425 12.3 80.9745 11.742 81.2385 11.254C81.5065 10.762 81.8705 10.374 82.3305 10.09C82.7945 9.806 83.3225 9.664 83.9145 9.664C84.4265 9.664 84.8925 9.78 85.3125 10.012C85.7365 10.244 86.0725 10.566 86.3205 10.978V5.674H87.4845V16H86.3205V14.848C86.0565 15.268 85.7125 15.598 85.2885 15.838C84.8645 16.074 84.3985 16.192 83.8905 16.192ZM84.2025 15.19C84.6225 15.19 84.9945 15.094 85.3185 14.902C85.6425 14.706 85.8965 14.438 86.0805 14.098C86.2645 13.758 86.3565 13.37 86.3565 12.934C86.3565 12.494 86.2645 12.104 86.0805 11.764C85.8965 11.42 85.6425 11.152 85.3185 10.96C84.9945 10.764 84.6245 10.666 84.2085 10.666C83.7925 10.666 83.4225 10.764 83.0985 10.96C82.7745 11.152 82.5185 11.42 82.3305 11.764C82.1465 12.104 82.0545 12.494 82.0545 12.934C82.0545 13.37 82.1465 13.758 82.3305 14.098C82.5145 14.438 82.7685 14.706 83.0925 14.902C83.4165 15.094 83.7865 15.19 84.2025 15.19ZM92.8389 16.192C92.1949 16.192 91.6169 16.05 91.1049 15.766C90.5929 15.482 90.1889 15.096 89.8929 14.608C89.5969 14.116 89.4489 13.562 89.4489 12.946C89.4489 12.49 89.5329 12.064 89.7009 11.668C89.8689 11.272 90.1029 10.924 90.4029 10.624C90.7029 10.32 91.0509 10.084 91.4469 9.916C91.8429 9.748 92.2669 9.664 92.7189 9.664C93.3589 9.664 93.9189 9.796 94.3989 10.06C94.8829 10.324 95.2589 10.692 95.5269 11.164C95.7989 11.636 95.9349 12.184 95.9349 12.808C95.9349 12.86 95.9329 12.902 95.9289 12.934C95.9249 12.966 95.9169 13.008 95.9049 13.06H90.6249C90.6249 13.488 90.7209 13.866 90.9129 14.194C91.1089 14.522 91.3769 14.78 91.7169 14.968C92.0609 15.152 92.4549 15.244 92.8989 15.244C93.3189 15.244 93.6949 15.158 94.0269 14.986C94.3589 14.814 94.6469 14.558 94.8909 14.218L95.7429 14.662C95.4509 15.146 95.0489 15.522 94.5369 15.79C94.0289 16.058 93.4629 16.192 92.8389 16.192ZM90.6849 12.202H94.7649C94.7089 11.886 94.5849 11.61 94.3929 11.374C94.2049 11.134 93.9669 10.948 93.6789 10.816C93.3949 10.68 93.0809 10.612 92.7369 10.612C92.3769 10.612 92.0509 10.678 91.7589 10.81C91.4709 10.938 91.2329 11.122 91.0449 11.362C90.8609 11.598 90.7409 11.878 90.6849 12.202Z" fill="#121212"/>
<g opacity="0.6">
<path d="M20.95 15.3024L12.5859 10.7403V10.4008C12.5859 10.0137 12.8206 9.65367 13.1984 9.46115C14.0496 9.02747 14.5556 8.19215 14.5189 7.28119C14.4692 6.0498 13.4056 5.04854 12.0977 5.00181C11.4055 4.9768 10.7501 5.21197 10.2521 5.66322C9.75371 6.1148 9.47926 6.72206 9.47926 7.37307C9.47926 7.67766 9.7416 7.92459 10.0652 7.92459C10.3888 7.92459 10.6511 7.67766 10.6511 7.37307C10.6511 7.02459 10.798 6.6996 11.0648 6.45785C11.3313 6.21643 11.6818 6.09043 12.0532 6.10403C12.7526 6.12903 13.3212 6.66448 13.3479 7.32303C13.3675 7.8112 13.0965 8.25877 12.6406 8.49111C11.8841 8.87658 11.4141 9.60833 11.4141 10.4008V10.7403L3.05004 15.3024C2.40234 15.6558 2 16.313 2 17.0177C2 18.1108 2.94461 19 4.1057 19H19.8943C21.0554 19 22 18.1107 22 17.0177C22 16.313 21.5977 15.6558 20.95 15.3024ZM19.8943 17.897H4.1057C3.59078 17.897 3.17188 17.5025 3.17188 17.0177C3.17188 16.7051 3.35031 16.4135 3.63762 16.2569L12 11.6956L20.3624 16.2569C20.6496 16.4136 20.8281 16.7051 20.8281 17.0177C20.8281 17.5025 20.4092 17.897 19.8943 17.897Z" fill="#121212"/>
</g>
</svg>
